<svg xmlns="http://www.w3.org/2000/svg" width="18" height="18" viewBox="0 0 18 18" fill="none"><g opacity="0.8" clip-path="url(#clip0_3533_30133)"><path d="M16.4789 7.40589C16.6757 6.8147 16.744 6.18834 16.6792 5.56866C16.6143 4.94897 16.4179 4.3503 16.1029 3.8127C15.6361 2.99955 14.9229 2.35575 14.0664 1.97419C13.2099 1.59264 12.2543 1.49306 11.3375 1.68982C10.924 1.22381 10.4157 0.851494 9.84668 0.597808C9.27762 0.344124 8.66096 0.214917 8.03795 0.218837C7.10063 0.216574 6.1868 0.512032 5.42821 1.06262C4.66962 1.6132 4.10549 2.39045 3.81712 3.28233C3.2065 3.40732 2.62963 3.66132 2.12512 4.02731C1.62061 4.3933 1.20011 4.86284 0.891766 5.40451C0.421165 6.21543 0.220285 7.15481 0.318097 8.0873C0.415909 9.01974 0.807355 9.897 1.43599 10.5926C1.23915 11.1838 1.17087 11.8101 1.23571 12.4298C1.30055 13.0495 1.49701 13.6482 1.81195 14.1858C2.27887 14.9989 2.99202 15.6426 3.84852 16.0242C4.705 16.4058 5.66058 16.5054 6.57736 16.3086C6.99087 16.7747 7.49918 17.147 8.06819 17.4007C8.63726 17.6543 9.25391 17.7835 9.87693 17.7796C10.8147 17.7821 11.729 17.4865 12.4879 16.9356C13.2468 16.3846 13.811 15.6068 14.0992 14.7144C14.7098 14.5894 15.2866 14.3354 15.7912 13.9694C16.2956 13.6035 16.7161 13.1339 17.0245 12.5922C17.4945 11.7814 17.6949 10.8422 17.5969 9.91013C17.4988 8.97803 17.1074 8.10117 16.4789 7.40589ZM9.87834 16.6316C9.10851 16.6327 8.36287 16.3631 7.77172 15.87C7.79837 15.8555 7.84513 15.8298 7.8756 15.8112L11.3722 13.7915C11.4599 13.7415 11.5328 13.6691 11.5833 13.5817C11.6338 13.4942 11.6601 13.3949 11.6595 13.294V8.3645L13.1374 9.21787C13.1452 9.22174 13.1518 9.22744 13.1569 9.23451C13.1619 9.24158 13.165 9.24979 13.1661 9.25835V13.3407C13.165 14.2127 12.8184 15.0486 12.2021 15.6654C11.5859 16.2823 10.7502 16.6297 9.87834 16.6316ZM2.80762 13.6118C2.42202 12.9455 2.28305 12.1649 2.41503 11.4065C2.44099 11.4221 2.48634 11.4498 2.51889 11.4685L6.01545 13.4882C6.10259 13.5391 6.20173 13.566 6.30266 13.566C6.40355 13.566 6.50268 13.5391 6.58982 13.4882L10.8588 11.0233V12.73C10.8592 12.7387 10.8576 12.7475 10.8539 12.7554C10.8502 12.7633 10.8446 12.7702 10.8376 12.7754L7.30298 14.8162C6.54693 15.2516 5.64899 15.3693 4.80624 15.1436C3.96347 14.9178 3.2447 14.3669 2.80762 13.6118ZM1.88777 5.97849C2.27169 5.31135 2.87809 4.80058 3.60075 4.53555C3.60075 4.56566 3.59902 4.619 3.59902 4.65601V8.69543C3.5984 8.79632 3.62467 8.89554 3.67511 8.98295C3.72555 9.07032 3.79834 9.14267 3.88602 9.19258L8.15495 11.6572L6.67706 12.5105C6.66977 12.5153 6.66138 12.5182 6.65269 12.519C6.644 12.5198 6.63522 12.5185 6.62718 12.515L3.09219 10.4725C2.33746 10.0354 1.78684 9.31687 1.56106 8.47443C1.33528 7.63203 1.45277 6.73444 1.88777 5.97849ZM14.0303 8.80414L9.76129 6.33923L11.2392 5.48621C11.2465 5.48142 11.2549 5.47848 11.2636 5.47769C11.2723 5.4769 11.281 5.47831 11.2891 5.48173L14.8241 7.52254C15.3657 7.83538 15.8069 8.29601 16.0961 8.85054C16.3854 9.40507 16.5106 10.0305 16.4573 10.6537C16.4039 11.2768 16.1741 11.8719 15.7948 12.3691C15.4155 12.8664 14.9024 13.2454 14.3155 13.4615C14.3155 13.4311 14.3155 13.3778 14.3155 13.3407V9.30129C14.3163 9.20057 14.2904 9.10144 14.2402 9.01408C14.1901 8.92671 14.1176 8.85427 14.0303 8.80414ZM15.5012 6.59022C15.4753 6.57429 15.4299 6.54694 15.3974 6.52828L11.9008 4.50855C11.8136 4.45771 11.7146 4.43088 11.6136 4.43088C11.5127 4.43088 11.4136 4.45771 11.3265 4.50855L7.05752 6.97349V5.26674C7.05703 5.258 7.0587 5.24931 7.06239 5.24141C7.06608 5.23351 7.07165 5.22661 7.07863 5.22139L10.6133 3.18227C11.1548 2.87003 11.774 2.71845 12.3986 2.74526C13.0231 2.77207 13.627 2.97616 14.1398 3.33366C14.6525 3.69117 15.0529 4.18729 15.294 4.76401C15.5351 5.34072 15.607 5.97414 15.5012 6.59022ZM6.25401 9.63227L4.77573 8.77889C4.768 8.77503 4.76129 8.76932 4.75628 8.76225C4.75128 8.75518 4.74807 8.74697 4.74702 8.73837V4.65601C4.74741 4.03078 4.92592 3.41857 5.2616 2.89107C5.59732 2.36358 6.07634 1.94262 6.64259 1.67747C7.20885 1.41232 7.83889 1.31396 8.45901 1.39389C9.07918 1.47382 9.6637 1.72873 10.1442 2.1288C10.1176 2.14334 10.0712 2.16896 10.0403 2.18766L6.54377 4.20736C6.45601 4.25724 6.38318 4.32958 6.33264 4.41697C6.28216 4.50433 6.25586 4.60359 6.25643 4.70448L6.25401 9.63227ZM7.05681 7.90128L8.95814 6.80315L10.8594 7.90058V10.0961L8.95814 11.1936L7.05681 10.0961V7.90128Z" fill="#1DA1F2"/></g><defs><clipPath id="clip0_3533_30133"><rect width="18" height="18" fill="white"/></clipPath></defs></svg>